<svg id="_Icons_8_Like_Copy" data-name="_Icons / 8 Like Copy" xmlns="http://www.w3.org/2000/svg" width="11.295" height="7.53" viewBox="0 0 11.295 7.53">
  <g id="visible" transform="translate(0 0)">
    <path id="Shape" d="M5.647,7.53C1.965,7.53.141,4.122.065,3.977A.376.376,0,0,1,.08,3.533C.171,3.389,2.345,0,5.647,0A5.951,5.951,0,0,1,9.613,1.689a9.5,9.5,0,0,1,1.6,1.843.377.377,0,0,1,.017.442C11.156,4.119,9.336,7.53,5.647,7.53Zm0-6.4A2.636,2.636,0,1,0,8.283,3.765,2.638,2.638,0,0,0,5.647,1.129Zm0,3.765a1.13,1.13,0,1,1,1.129-1.13A1.131,1.131,0,0,1,5.647,4.895Z" transform="translate(0 0)" fill="#fff"/>
  </g>
</svg>
