<svg id="gift" xmlns="http://www.w3.org/2000/svg" width="15.289" height="15.984" viewBox="0 0 15.289 15.984">
  <path id="Shape" d="M.056.082c-.126,0,0,6.95,0,6.95a.642.642,0,0,0,.566.695H11.937a.635.635,0,0,0,.566-.695V.082Z" transform="translate(1.397 8.258)" fill="rgba(255,255,255,0.9)"/>
  <path id="Shape-2" data-name="Shape" d="M12.281,0H.229A.257.257,0,0,0,0,.278V1.39H12.509V.278A.257.257,0,0,0,12.281,0Z" transform="translate(1.39 8.339)" fill="#e6dddc"/>
  <path id="Shape-3" data-name="Shape" d="M2.552,0H.228C.1,0,0,.019,0,.042V1.348c0,.023.1.042.228.042H2.552c.126,0,.228-.019.228-.042V.042C2.78.019,2.678,0,2.552,0Z" transform="translate(6.255 6.95)" fill="#ffdb57"/>
  <path id="Shape-4" data-name="Shape" d="M2.552,0H.228C.1,0,0,.688,0,1.535V7.645H2.78V1.535C2.78.687,2.678,0,2.552,0Z" transform="translate(6.255 8.339)" fill="#eccb53"/>
  <path id="Shape-5" data-name="Shape" d="M5.3,2.024A5.487,5.487,0,0,0,4.267.236.734.734,0,0,0,3.694,0C2.945.019,1.724,1.028.064,3A.279.279,0,0,0,0,3.18V4.6a.259.259,0,0,0,.25.268H4.09a1.306,1.306,0,0,0,1.354-.821A3.022,3.022,0,0,0,5.3,2.024Z" transform="translate(9.034 0)" fill="#ffdb57"/>
  <path id="Shape-6" data-name="Shape" d="M4.739.567A.368.368,0,0,0,4.7.472C4.3-.277,3.433,0,2.776.37a7.123,7.123,0,0,0-2.733,2.6A.394.394,0,0,0,.032,3.3a.264.264,0,0,0,.234.172H3.3a1.4,1.4,0,0,0,1.28-.653A3.086,3.086,0,0,0,4.739.567Z" transform="translate(9.729 2.085)" fill="#ef9325"/>
  <path id="Shape-7" data-name="Shape" d="M5.5,3C3.836,1.028,2.615.019,1.865,0a.733.733,0,0,0-.572.236A5.487,5.487,0,0,0,.26,2.024,3.023,3.023,0,0,0,.116,4.043a1.306,1.306,0,0,0,1.354.821H5.31A.259.259,0,0,0,5.56,4.6V3.18A.279.279,0,0,0,5.5,3Z" transform="translate(0.695 0)" fill="#ffdb57"/>
  <path id="Shape-8" data-name="Shape" d="M4.822,2.968A7.123,7.123,0,0,0,2.089.37C1.431,0,.563-.277.161.472A.37.37,0,0,0,.126.567,3.086,3.086,0,0,0,.289,2.822a1.4,1.4,0,0,0,1.28.653H4.6A.264.264,0,0,0,4.832,3.3.4.4,0,0,0,4.822,2.968Z" transform="translate(0.695 2.085)" fill="#ef9325"/>
  <path id="Shape-9" data-name="Shape" d="M3.14,0H.335C.15,0,0,.113,0,.252V1.833c0,.139.15.252.335.252H3.14c.185,0,.335-.113.335-.252V.252C3.475.113,3.325,0,3.14,0Z" transform="translate(5.56 3.475)" fill="#f5ba3d"/>
  <path id="Shape-10" data-name="Shape" d="M14.7,0H.588A.648.648,0,0,0,0,.695v2.78a.63.63,0,0,0,.588.695h14.46c.133,0,.241-.5.241-.695V.695A1.256,1.256,0,0,0,14.7,0Z" transform="translate(0 4.17)" fill="#fff"/>
  <rect id="Rectangle-path" width="2" height="4" transform="translate(6.645 4.492)" fill="#ffdb57"/>
</svg>
